<svg width="360" height="228" viewBox="0 0 360 228" fill="none" xmlns="http://www.w3.org/2000/svg">
<g clip-path="url(#clip0_11995_42017)">
<rect width="360" height="228" fill="#DCE798"/>
<path d="M-7.26976 84.7887C-8.68857 86.613 -7.29883 89.1092 -6.24909 90.7609C-12.0757 92.3524 -17.9404 93.8834 -23.7154 95.6733C-26.4576 96.5268 -30.9194 97.5743 -33.0016 99.4866C-35.369 101.642 -33.7248 104.873 -30.8486 105.688C-27.9725 106.503 -20.5045 105.968 -17.1772 105.742C-10.6282 105.299 -4.12236 104.1 2.44561 104.063L23.382 139.3C23.665 139.465 23.9196 139.343 24.2016 139.282C26.2815 138.849 29.983 136.699 32.2436 135.83C37.2675 133.89 42.454 132.406 47.5983 130.818L38.8409 128.579C29.9707 125.097 21.4398 119.557 14.9763 112.491C12.5714 109.872 10.2332 106.743 9.0633 103.346C12.3832 102.938 15.7475 102.761 19.077 102.341C20.0361 102.224 21.1178 101.408 21.9924 102.156C31.0034 111.666 40.5859 120.594 50.0427 129.652C51.3862 130.074 55.3644 128.454 56.951 128.102C66.0733 126.073 75.842 124.321 85.2017 124.465C94.1442 124.596 97.6392 135.067 99.7962 142.275L129.99 137.682C134.83 137.326 139.592 136.409 144.368 135.726C208.888 126.48 273.501 116.132 337.741 105.039C353.557 102.307 369.25 100.261 385.158 98.2372C386.464 98.074 387.722 97.53 389.177 97.5663C389.53 97.5738 389.942 97.6396 389.608 98.0373C384.154 99.4093 378.81 101.349 373.302 102.501C369.237 103.348 365.053 103.757 360.977 104.509C283.238 119.002 205.285 133.27 127.172 145.175C118.092 146.557 108.992 147.738 99.9643 149.436C99.6157 149.471 99.5471 149.639 99.415 149.92C99.0906 150.627 98.9309 152.883 98.6191 153.932C96.9865 159.506 92.3584 163.709 86.6042 160.129C79.6216 155.783 76.9922 141.68 77.9143 134.109C78.0729 132.808 78.8303 131.95 79.0502 130.728C76.6694 130.067 74.3772 130.511 72.0037 130.674C54.9309 131.818 28.1003 139.438 14.8732 150.717C13.9784 151.482 10.9909 154.16 10.8989 155.166C10.5795 158.605 15.308 161.955 18.0193 163.258C28.4738 168.295 40.674 167.286 51.8663 167.942C57.962 168.305 64.3882 170.06 70.4956 170.755C79.0091 171.722 87.7045 171.3 96.2582 171.385L98.9697 171.617L-0.348412 197.295C-4.95612 198.914 -10.4816 199.565 -14.9499 201.406C-17.4091 202.424 -18.7044 205.061 -17.4182 207.589C-17.2725 207.874 -15.0514 210.04 -14.8296 210.125C-14.0754 210.414 -11.0608 210.476 -10.032 210.523C-0.364923 210.967 10.3172 211.428 19.9484 211.405C44.0422 211.345 68.4784 201.32 91.8356 196.213C99.2376 199.413 108.265 197.394 116.219 197.132C120.876 196.975 125.586 196.813 130.253 196.753C136.06 196.684 142.24 197.254 147.936 197.025C161.377 196.481 163.606 189.604 172.57 182.02C175.906 179.199 180.095 177.333 182.72 174.016C215.591 163.52 251.545 158.5 281.462 140.511C305.982 135.941 331.03 132.389 355.168 126.122C369.167 122.49 380.032 118.679 391.297 109.342C393.525 107.501 398.728 103.176 398.506 100.08C398.44 99.1013 397.426 95.8712 397.052 94.7944C395.245 89.7152 393.074 88.1546 388.746 85.2995C385.276 83.012 381.384 81.0989 377.677 79.2315C369.88 83.8597 361.811 87.6796 353.113 90.3304C345.295 92.7109 325.879 98.8259 318.579 97.5117C315.559 96.9682 314.373 94.2694 313.375 91.6269C312.376 88.9844 310.858 84.669 313.17 82.4873C315.667 80.1369 322.995 79.6913 326.45 78.9269C335.572 76.8978 344.808 73.6466 352.389 68.1401C352.767 67.4379 340.696 63.7311 339.786 63.4901C320.149 58.3779 299.562 62.9069 279.997 66.6691C231.729 75.9564 184.228 88.7772 136.106 98.5641C126.465 100.527 115.945 102.772 106.1 102.57C89.8838 102.246 75.3739 92.2596 61.2797 85.3808L60.9545 84.7921C63.6481 83.6648 71.2244 78.5337 66.0279 75.8408C61.8442 73.6785 49.9933 77.4491 44.7362 77.1514C43.5564 77.0876 41.0626 75.7199 39.7212 75.3188C27.1878 71.4761 17.3703 75.5249 5.42743 79.444C2.74119 80.3241 -5.72629 82.8233 -7.24864 84.7866L-7.26976 84.7887ZM26.3212 83.4659C31.1823 83.3212 42.29 84.1999 41.8075 91.1479C41.6625 93.2302 39.6013 96.5331 37.2268 96.0428C35.0045 95.58 36.3928 92.2695 34.2436 90.2888C30.2745 86.6371 17.9634 87.9254 12.8329 88.5792C11.6953 88.7255 8.25801 89.7773 7.42678 89.25C6.83531 88.8808 6.71389 88.4109 7.11852 87.8667C7.76613 86.9768 13.6583 85.4002 15.0864 85.0641C18.7233 84.1958 22.5767 83.5736 26.3212 83.4659ZM265.915 100.78C266.969 100.867 268.07 101.753 268.537 102.691C269.004 103.63 269.679 107.312 269.674 108.438C269.647 112.565 264.767 113.912 263.397 110.439C262.799 108.924 261.992 104.034 262.599 102.623C263.205 101.212 264.475 100.678 265.916 100.79L265.915 100.78ZM247.765 104.936C249.132 106.02 250.003 110.7 249.752 112.364C249.362 114.878 246.089 116.085 244.091 114.443C242.789 113.363 243.236 112.6 242.85 111.407C242.329 109.809 241.479 108.769 242.047 106.977C242.721 104.852 245.924 103.481 247.766 104.946L247.765 104.936ZM226.712 107.786C228.076 107.767 229.327 108.981 229.911 110.133C230.666 111.611 231.429 115.209 230.99 116.796C230.038 120.202 225.263 120.252 224.277 116.773C224.012 115.824 223.384 113.477 223.272 112.567C223.016 110.418 224.293 107.815 226.721 107.775L226.712 107.786ZM207.806 110.454C211.579 110.847 212.175 115.555 211.845 118.566C211.59 120.927 209.848 122.613 207.468 121.426C204.786 120.099 204.999 115.91 203.819 113.489C203.865 111.267 205.693 110.227 207.806 110.454ZM187.966 114.233C190.968 114.275 192.366 117.713 192.852 120.246C193.85 125.449 188.399 127.924 186.433 123.279C185.484 121.028 185.701 118.606 185.411 116.225C185.836 115.132 186.727 114.218 187.976 114.232L187.966 114.233ZM169.405 117.905C173.235 118.014 174.539 122.436 174.468 125.69C174.42 127.891 172.304 129.249 170.284 128.241C168.263 127.233 167.35 125.664 166.866 123.592C166.272 121.048 165.843 117.812 169.396 117.917L169.405 117.905ZM149.738 120.424C155.052 120.116 156.843 130.725 152.118 131.381C151.351 131.49 149.128 130.599 148.555 130.089C147.222 128.915 146.084 123.265 147.005 121.802C147.475 121.058 148.9 120.476 149.738 120.424ZM194.96 162.032L228.884 146.363C239.718 145.565 250.389 143.552 261.095 141.782C262.711 141.513 264.38 141.131 265.989 140.788C265.15 141.686 263.769 142.285 262.674 142.856C244.848 152.09 223.324 155.888 203.848 160.123C201.134 160.717 198.451 161.521 195.734 162.094C195.473 162.152 194.957 162.547 194.961 162.043L194.96 162.032Z" fill="url(#paint0_linear_11995_42017)"/>
</g>
<defs>
<linearGradient id="paint0_linear_11995_42017" x1="72.5516" y1="145.453" x2="301.682" y2="118.099" gradientUnits="userSpaceOnUse">
<stop stop-color="#6AB487"/>
<stop offset="1" stop-color="#B9DFC3"/>
</linearGradient>
<clipPath id="clip0_11995_42017">
<rect width="360" height="228" fill="white"/>
</clipPath>
</defs>
</svg>
